<?xml version="1.0" encoding="utf-8"?>
<!-- Generator: Adobe Illustrator 19.2.1, SVG Export Plug-In . SVG Version: 6.00 Build 0)  -->
<svg version="1.1" id="Layer_1" xmlns="http://www.w3.org/2000/svg" xmlns:xlink="http://www.w3.org/1999/xlink" x="0px" y="0px"
	 viewBox="0 0 158.8 49.7" style="enable-background:new 0 0 158.8 49.7;" xml:space="preserve">
<style type="text/css">
	.st0{fill:#D3D1C1;}
	.st1{fill:#FFFFFF;}
	.st2{fill:#231F20;}
</style>
<g>
	<polygon class="st0" points="95.6,30.9 95.6,4.1 101.3,4.1 101.4,4.3 101.4,30.9 	"/>
	<polygon class="st0" points="116.7,30.9 116.7,4.4 116.8,4.1 122.6,4.1 122.6,30.9 	"/>
	<polygon class="st0" points="101.3,4.1 109,15.3 116.8,4.1 122.6,4.1 122.6,5.5 110.3,23.4 108,23.8 95.6,5.6 95.6,4.1 	"/>
</g>
<polygon class="st0" points="49.1,19.1 54.5,30.9 60.9,30.9 55.2,18.9 "/>
<path class="st0" d="M78.2,31.5c-7.7,0-14-6.3-14-13.9c0-7.7,6.3-13.9,14-13.9s14,6.2,14,13.9C92.2,25.2,85.9,31.5,78.2,31.5
	 M78.2,9.3c-4.5,0-8.1,3.7-8.1,8.3c0,4.5,3.6,8.3,8.1,8.3c4.6,0,8.2-3.7,8.2-8.3C86.4,13,82.8,9.3,78.2,9.3"/>
<polygon class="st0" points="146,30.9 138.3,14.1 130.5,30.9 124.1,30.9 137.1,4 139.4,3.6 152.5,30.9 "/>
<g>
	<path class="st0" d="M33.5,35.3c1.9,0,3.9,1,4.3,3.3h-2c-0.4-1.1-1.3-1.5-2.4-1.5c-1.7,0-2.8,1.2-2.8,3c0,1.6,1.1,2.9,2.8,2.9
		c1.2,0,2.1-0.5,2.4-1.7h1.9c-0.4,2.5-2.4,3.5-4.4,3.5c-2.5,0-4.8-1.7-4.8-4.8C28.6,36.9,31,35.2,33.5,35.3"/>
	<path class="st0" d="M44.8,44.9c-2.5,0-4.8-1.7-4.8-4.9s2.3-4.9,4.8-4.9c2.4,0,4.8,1.7,4.8,4.9C49.6,42.9,47.6,44.9,44.8,44.9
		 M44.8,43.1c1.5,0,2.8-1,2.8-3s-1.3-3-2.8-3s-2.8,1-2.8,3S43.3,43.1,44.8,43.1"/>
	<polygon class="st0" points="57.7,41.4 54.4,41.4 54.4,44.7 52.4,44.7 52.4,35.3 58.2,35.3 58.2,37.1 54.4,37.1 54.4,39.6 
		57.8,39.6 57.8,41.4 	"/>
	<polygon class="st0" points="66.2,41.4 62.8,41.4 62.8,44.7 60.8,44.7 60.8,35.3 66.6,35.3 66.6,37.1 62.8,37.1 62.8,39.6 
		66.2,39.6 	"/>
	<polygon class="st0" points="75,37.1 71.3,37.1 71.3,39 74.8,39 74.8,40.8 71.3,40.8 71.3,42.9 75.1,42.9 75.1,44.7 69.2,44.7 
		69.2,35.3 75,35.3 	"/>
	<polygon class="st0" points="83.9,37.1 80.2,37.1 80.2,39 83.6,39 83.6,40.8 80.1,40.8 80.1,42.9 84,42.9 84,44.7 78.1,44.7 
		78.1,35.3 83.9,35.3 	"/>
	<polygon class="st0" points="91.4,39 93.2,39 93.2,37.3 94.7,37.3 94.7,39 96.5,39 96.5,40.6 94.7,40.6 94.7,42.3 93.2,42.3 
		93.2,40.6 91.4,40.6 	"/>
	<polygon class="st0" points="103.4,37.1 103.4,35.3 110.3,35.3 110.3,37.1 107.9,37.1 107.9,44.7 105.9,44.7 105.9,37.1 	"/>
	<polygon class="st0" points="118.5,37.1 114.7,37.1 114.7,39 118.2,39 118.2,40.8 114.7,40.8 114.7,42.9 118.6,42.9 118.6,44.7 
		112.7,44.7 112.7,35.3 118.5,35.3 	"/>
	<path class="st0" d="M123.4,43.2l-0.7,1.6h-2.1v-0.3l4.3-9.2h0.9l4.3,9.2v0.3H128l-0.7-1.6H123.4z M124.1,41.5h2.6l-1.3-3.1
		L124.1,41.5z"/>
</g>
<g>
	<polygon class="st0" points="24.9,3.6 22.6,4 9.6,30.9 16,30.9 23.8,14.1 31.6,30.9 38,30.9 	"/>
	<polygon class="st0" points="32,26.2 15.6,26.2 16.6,20.6 31,20.6 	"/>
</g>
<polygon class="st0" points="144.8,25.8 128.5,25.8 129.5,20.2 143.8,20.2 "/>
<path class="st0" d="M51.2,4.1H40.6l0,0l0,0v26.8h5.6v-7.3c0,0,3.6,0,5.1,0c5.3,0,9.7-4.4,9.7-9.7S56.6,4.1,51.2,4.1z M51.2,17.9
	c-2.2,0-5.1,0-5.1,0s0-7.8,0-8.1l0,0c0,0,4,0,5.1,0c2.2,0,4.1,1.8,4.1,4.1C55.3,16.1,53.4,17.9,51.2,17.9z"/>
</svg>
