<?xml version="1.0" encoding="utf-8"?>
<!-- Generator: Adobe Illustrator 16.0.0, SVG Export Plug-In . SVG Version: 6.00 Build 0)  -->
<!DOCTYPE svg PUBLIC "-//W3C//DTD SVG 1.1//EN" "http://www.w3.org/Graphics/SVG/1.1/DTD/svg11.dtd">
<svg version="1.1" id="Layer_1" xmlns="http://www.w3.org/2000/svg" xmlns:xlink="http://www.w3.org/1999/xlink" x="0px" y="0px"
	 width="158.838px" height="120px" viewBox="0 0 158.838 120" enable-background="new 0 0 158.838 120" xml:space="preserve">
<g opacity="0.5">
	<path fill="#D3D1C1" d="M0,120c0-5.784,0.481-11.152,1.447-16.112c0.961-4.957,2.687-9.603,5.164-13.942
		c2.477-4.34,5.851-8.468,10.12-12.392c4.267-3.927,9.775-7.746,16.522-11.463c4.82-2.616,9.364-5.026,13.633-7.229
		c4.268-2.201,8.021-4.368,11.255-6.504c3.235-2.135,5.815-4.408,7.746-6.817c1.927-2.407,2.892-5.195,2.892-8.364
		c0-4.406-1.896-8.364-5.68-11.877c-3.787-3.511-9.262-5.266-16.419-5.266c-3.719,0-7.125,0.516-10.225,1.549
		c-3.1,1.033-5.922,2.342-8.466,3.924c-2.549,1.585-4.787,3.341-6.715,5.267c-1.929,1.93-3.649,3.789-5.163,5.578L1.651,19.619
		c1.38-1.514,3.547-3.407,6.511-5.678c2.96-2.273,6.538-4.441,10.74-6.506c4.2-2.065,8.984-3.82,14.354-5.267
		C38.625,0.722,44.476,0,50.812,0c6.609,0,12.562,0.862,17.864,2.582c5.301,1.722,9.777,4.098,13.427,7.125
		c3.647,3.03,6.435,6.644,8.365,10.842c1.924,4.202,2.889,8.711,2.889,13.53c0,5.096-1.03,9.64-3.096,13.633
		c-2.066,3.996-4.615,7.506-7.641,10.533c-3.032,3.029-6.336,5.612-9.914,7.744c-3.582,2.138-6.889,3.961-9.913,5.473
		c-2.893,1.379-6.167,2.995-9.811,4.855c-3.65,1.854-7.197,3.992-10.637,6.401c-3.444,2.411-6.54,4.993-9.293,7.743
		c-2.757,2.755-4.684,5.783-5.784,9.085h68.365v20.451H0V120z"/>
</g>
</svg>
