<?xml version="1.0" encoding="utf-8"?>
<!-- Generator: Adobe Illustrator 16.0.0, SVG Export Plug-In . SVG Version: 6.00 Build 0)  -->
<!DOCTYPE svg PUBLIC "-//W3C//DTD SVG 1.1//EN" "http://www.w3.org/Graphics/SVG/1.1/DTD/svg11.dtd">
<svg version="1.1" id="Layer_1" xmlns="http://www.w3.org/2000/svg" xmlns:xlink="http://www.w3.org/1999/xlink" x="0px" y="0px"
	 width="158.838px" height="119.999px" viewBox="0 0 158.838 119.999" enable-background="new 0 0 158.838 119.999"
	 xml:space="preserve">
<g opacity="0.5">
	<path fill="#D3D1C1" d="M55.933,56.429c3.43,0.665,6.582,1.856,9.461,3.57c2.877,1.715,5.312,3.847,7.303,6.388
		c1.992,2.546,3.541,5.477,4.646,8.796c1.107,3.321,1.661,6.918,1.661,10.792c0,5.2-0.97,9.874-2.905,14.023
		c-1.938,4.149-4.706,7.717-8.298,10.706c-3.597,2.987-7.941,5.282-13.029,6.889c-5.092,1.602-10.789,2.406-17.096,2.406
		c-8.41,0-15.824-1.469-22.24-4.399C9.019,112.665,3.873,108.434,0,102.901l11.121-12.615c2.657,4.095,6.085,7.301,10.291,9.626
		c4.203,2.324,9.514,3.485,15.932,3.485c7.303,0,12.919-1.55,16.847-4.646c3.925-3.098,5.892-7.744,5.892-13.94
		c0-6.416-2.215-11.455-6.64-15.106c-4.427-3.649-10.953-5.478-19.585-5.478h-4.482V49.953h4.98c7.412,0,13.111-1.742,17.095-5.228
		c3.982-3.484,5.973-7.884,5.973-13.196c0-5.311-1.77-9.209-5.309-11.7c-3.543-2.489-8.132-3.735-13.776-3.735
		c-5.643,0-10.623,1.218-14.938,3.651c-4.316,2.435-7.747,5.92-10.291,10.457L1.659,17.758c1.548-2.655,3.651-5.061,6.308-7.22
		c2.656-2.159,5.667-4.037,9.044-5.644c3.375-1.602,7.025-2.82,10.954-3.65C31.894,0.414,35.96,0,40.165,0
		c5.419,0,10.375,0.72,14.855,2.159c4.48,1.438,8.354,3.431,11.618,5.974c3.264,2.546,5.782,5.643,7.553,9.294
		c1.768,3.651,2.654,7.692,2.654,12.116c0,3.318-0.498,6.474-1.493,9.46c-0.995,2.986-2.406,5.699-4.232,8.133
		c-1.825,2.436-4.011,4.455-6.556,6.057C62.019,54.794,59.142,55.88,55.933,56.429z"/>
</g>
</svg>
