<?xml version="1.0" encoding="utf-8"?>
<!-- Generator: Adobe Illustrator 16.0.0, SVG Export Plug-In . SVG Version: 6.00 Build 0)  -->
<!DOCTYPE svg PUBLIC "-//W3C//DTD SVG 1.1//EN" "http://www.w3.org/Graphics/SVG/1.1/DTD/svg11.dtd">
<svg version="1.1" id="Layer_1" xmlns="http://www.w3.org/2000/svg" xmlns:xlink="http://www.w3.org/1999/xlink" x="0px" y="0px"
	 width="158.838px" height="120px" viewBox="0 0 158.838 120" enable-background="new 0 0 158.838 120" xml:space="preserve">
<g opacity="0.5">
	<path fill="#D3D1C1" d="M84.483,99.193V120H4.206V99.193h29.842V25.85c-1.262,1.683-3.225,3.434-5.884,5.254
		c-2.663,1.824-5.605,3.504-8.825,5.043c-3.225,1.543-6.589,2.837-10.088,3.889C5.743,41.086,2.661,41.61,0,41.61V19.965
		c2.802,0,6.06-0.841,9.772-2.523c3.712-1.682,7.283-3.643,10.717-5.884c3.433-2.24,6.443-4.484,9.039-6.726
		C32.118,2.594,33.626,0.979,34.047,0h23.748v99.193H84.483z"/>
</g>
</svg>
