<?xml version="1.0" encoding="utf-8"?>
<!-- Generator: Adobe Illustrator 16.0.0, SVG Export Plug-In . SVG Version: 6.00 Build 0)  -->
<!DOCTYPE svg PUBLIC "-//W3C//DTD SVG 1.1//EN" "http://www.w3.org/Graphics/SVG/1.1/DTD/svg11.dtd">
<svg version="1.1" id="Layer_1" xmlns="http://www.w3.org/2000/svg" xmlns:xlink="http://www.w3.org/1999/xlink" x="0px" y="0px"
	 width="133.315px" height="133.315px" viewBox="9.252 -8.972 133.315 133.315"
	 enable-background="new 9.252 -8.972 133.315 133.315" xml:space="preserve">
<g>
	<path fill="#8E7861" d="M37.01,8.69h-5.664v14.664h-2.712V8.69h-5.688V6.314H37.01V8.69z"/>
	<path fill="#8E7861" d="M53.282,6.314v17.04H50.57v-7.512h-8.592v7.512H39.29V6.314h2.688v7.128h8.592V6.314H53.282z"/>
	<path fill="#8E7861" d="M68.811,20.978v2.376H57.122V6.314h11.472V8.69H59.81v4.848h7.608v2.232H59.81v5.208H68.811z"/>
	<path fill="#8E7861" d="M29.522,35.114h2.352l6.72,17.04h-2.832l-1.8-4.632h-6.576l-1.776,4.632h-2.856L29.522,35.114z
		 M33.434,45.53l-2.736-7.32l-2.832,7.32H33.434z"/>
	<path fill="#8E7861" d="M40.706,52.154v-17.04h7.416c0.768,0,1.476,0.16,2.124,0.48c0.648,0.319,1.204,0.74,1.668,1.26
		c0.464,0.52,0.828,1.112,1.092,1.775c0.264,0.664,0.396,1.341,0.396,2.028c0,0.576-0.081,1.128-0.24,1.656
		c-0.16,0.528-0.384,1.016-0.672,1.464s-0.64,0.836-1.056,1.164s-0.872,0.572-1.368,0.731l4.008,6.48h-3.048l-3.696-5.928h-3.936
		v5.928H40.706z M43.394,43.851h4.704c0.384,0,0.732-0.084,1.044-0.252s0.58-0.4,0.804-0.696c0.224-0.296,0.399-0.636,0.528-1.021
		c0.128-0.384,0.192-0.792,0.192-1.224s-0.076-0.84-0.228-1.224c-0.152-0.384-0.352-0.721-0.6-1.008
		c-0.248-0.288-0.536-0.517-0.864-0.685c-0.328-0.168-0.668-0.252-1.02-0.252h-4.56V43.851z"/>
	<path fill="#8E7861" d="M68.81,37.49h-5.664v14.664h-2.712V37.49h-5.688v-2.376H68.81V37.49z"/>
	<path fill="#8E7861" d="M31.586,81.074c-1.216,0-2.324-0.244-3.324-0.732c-1-0.487-1.86-1.136-2.58-1.943
		c-0.72-0.808-1.276-1.732-1.668-2.772c-0.393-1.04-0.588-2.104-0.588-3.191c0-1.137,0.208-2.225,0.624-3.265s0.988-1.96,1.716-2.76
		c0.728-0.8,1.592-1.436,2.592-1.908c1-0.472,2.092-0.708,3.276-0.708c1.216,0,2.324,0.252,3.324,0.756
		c1,0.504,1.856,1.164,2.568,1.98c0.712,0.815,1.264,1.74,1.656,2.771c0.392,1.032,0.588,2.085,0.588,3.156
		c0,1.137-0.204,2.225-0.612,3.264c-0.408,1.041-0.98,1.956-1.716,2.748s-1.604,1.425-2.604,1.896S32.754,81.074,31.586,81.074z
		 M26.162,72.435c0,0.8,0.128,1.575,0.384,2.327c0.256,0.753,0.62,1.416,1.092,1.992c0.472,0.576,1.044,1.036,1.716,1.38
		c0.672,0.345,1.424,0.517,2.256,0.517c0.864,0,1.628-0.181,2.292-0.54c0.664-0.36,1.228-0.836,1.692-1.429
		c0.464-0.591,0.816-1.256,1.056-1.991c0.24-0.736,0.36-1.488,0.36-2.256c0-0.816-0.128-1.597-0.384-2.341
		c-0.256-0.743-0.62-1.399-1.092-1.968c-0.472-0.567-1.041-1.023-1.704-1.368c-0.664-0.344-1.404-0.516-2.22-0.516
		c-0.864,0-1.632,0.18-2.304,0.54c-0.672,0.36-1.24,0.828-1.704,1.404c-0.464,0.575-0.82,1.235-1.068,1.979
		C26.286,70.91,26.162,71.666,26.162,72.435z"/>
	<path fill="#8E7861" d="M42.554,80.954v-17.04h11.352v2.376h-8.664v5.088h7.248v2.232h-7.248v7.344H42.554z"/>
	<path fill="#8E7861" d="M23.426,101.115c0-1.024,0.184-2.044,0.552-3.061c0.368-1.016,0.908-1.928,1.62-2.735
		c0.711-0.809,1.58-1.46,2.604-1.956c1.023-0.496,2.184-0.744,3.48-0.744c1.552,0,2.88,0.344,3.984,1.032
		c1.104,0.688,1.936,1.584,2.496,2.688l-2.112,1.416c-0.24-0.512-0.528-0.944-0.864-1.296s-0.705-0.632-1.104-0.84
		c-0.4-0.208-0.816-0.356-1.248-0.444s-0.848-0.132-1.248-0.132c-0.896,0-1.68,0.18-2.352,0.54s-1.236,0.836-1.692,1.428
		s-0.8,1.257-1.032,1.992c-0.232,0.736-0.348,1.473-0.348,2.208c0,0.832,0.136,1.624,0.408,2.376s0.652,1.416,1.14,1.992
		c0.488,0.576,1.068,1.036,1.74,1.38c0.672,0.344,1.408,0.516,2.208,0.516c0.416,0,0.844-0.052,1.284-0.155
		c0.44-0.104,0.864-0.272,1.272-0.505c0.408-0.231,0.784-0.523,1.128-0.876c0.344-0.352,0.628-0.775,0.852-1.271l2.232,1.271
		c-0.272,0.641-0.656,1.204-1.152,1.692c-0.496,0.488-1.056,0.9-1.68,1.236s-1.284,0.592-1.98,0.768
		c-0.696,0.176-1.38,0.264-2.052,0.264c-1.2,0-2.296-0.255-3.288-0.768c-0.992-0.512-1.848-1.18-2.568-2.004
		c-0.72-0.824-1.28-1.76-1.68-2.808S23.426,102.203,23.426,101.115z"/>
	<path fill="#8E7861" d="M47.834,109.875c-1.216,0-2.324-0.244-3.324-0.732c-1-0.487-1.86-1.136-2.58-1.943
		c-0.72-0.808-1.276-1.732-1.668-2.772c-0.393-1.04-0.588-2.104-0.588-3.191c0-1.137,0.208-2.225,0.624-3.265s0.988-1.96,1.716-2.76
		c0.728-0.8,1.592-1.436,2.592-1.908c1-0.472,2.092-0.708,3.276-0.708c1.216,0,2.324,0.252,3.324,0.756
		c1,0.504,1.856,1.164,2.568,1.98c0.712,0.815,1.264,1.74,1.656,2.771c0.392,1.032,0.588,2.085,0.588,3.156
		c0,1.137-0.204,2.225-0.612,3.264c-0.408,1.041-0.98,1.956-1.716,2.748s-1.604,1.425-2.604,1.896S49.002,109.875,47.834,109.875z
		 M42.41,101.235c0,0.8,0.128,1.575,0.384,2.327c0.256,0.753,0.62,1.416,1.092,1.992c0.472,0.576,1.044,1.036,1.716,1.38
		c0.672,0.345,1.424,0.517,2.256,0.517c0.864,0,1.628-0.181,2.292-0.54c0.664-0.36,1.228-0.836,1.692-1.429
		c0.464-0.591,0.816-1.256,1.056-1.991c0.24-0.736,0.36-1.488,0.36-2.256c0-0.816-0.128-1.597-0.384-2.341
		c-0.256-0.743-0.62-1.399-1.092-1.968c-0.472-0.567-1.041-1.023-1.704-1.368c-0.664-0.344-1.404-0.516-2.22-0.516
		c-0.864,0-1.632,0.18-2.304,0.54c-0.672,0.36-1.24,0.828-1.704,1.404c-0.464,0.575-0.82,1.235-1.068,1.979
		C42.534,99.711,42.41,100.467,42.41,101.235z"/>
	<path fill="#8E7861" d="M58.802,109.755v-17.04h11.353v2.376H61.49v5.088h7.249v2.232H61.49v7.344H58.802z"/>
	<path fill="#8E7861" d="M72.697,109.755v-17.04H84.05v2.376h-8.664v5.088h7.248v2.232h-7.248v7.344H72.697z"/>
	<path fill="#8E7861" d="M98.282,107.379v2.376H86.594v-17.04h11.472v2.376h-8.783v4.848h7.607v2.232h-7.607v5.208H98.282z"/>
	<path fill="#8E7861" d="M112.754,107.379v2.376h-11.688v-17.04h11.472v2.376h-8.783v4.848h7.607v2.232h-7.607v5.208H112.754z"/>
</g>
<g>
	<path fill="#8E7861" d="M140.567-6.972v129.315H11.252V-6.972H140.567 M142.567-8.972H9.252v133.315h133.315V-8.972L142.567-8.972z
		"/>
</g>
</svg>
