<?xml version="1.0" encoding="utf-8"?>
<!-- Generator: Adobe Illustrator 19.2.1, SVG Export Plug-In . SVG Version: 6.00 Build 0)  -->
<svg version="1.1" id="Layer_1" xmlns="http://www.w3.org/2000/svg" xmlns:xlink="http://www.w3.org/1999/xlink" x="0px" y="0px"
	 viewBox="0 0 158.8 49.7" style="enable-background:new 0 0 158.8 49.7;" xml:space="preserve">
<style type="text/css">
	.st0{fill:#D3D1C1;}
	.st1{fill:#FFFFFF;}
	.st2{fill:#231F20;}
</style>
<g>
	<polygon class="st2" points="95.6,31.8 95.6,5 101.3,5 101.4,5.2 101.4,31.8 	"/>
	<polygon class="st2" points="116.7,31.8 116.7,5.3 116.8,5 122.6,5 122.6,31.8 	"/>
	<polygon class="st2" points="101.3,5 109,16.1 116.8,5 122.6,5 122.6,6.4 110.3,24.3 108,24.7 95.6,6.4 95.6,5 	"/>
</g>
<polygon class="st2" points="49.1,20 54.5,31.8 60.9,31.8 55.2,19.8 "/>
<path class="st2" d="M78.2,32.4c-7.7,0-14-6.3-14-13.9c0-7.7,6.3-13.9,14-13.9s14,6.2,14,13.9C92.2,26.1,85.9,32.4,78.2,32.4
	 M78.2,10.2c-4.5,0-8.1,3.7-8.1,8.3c0,4.5,3.6,8.3,8.1,8.3c4.6,0,8.2-3.7,8.2-8.3C86.4,13.9,82.8,10.2,78.2,10.2"/>
<polygon class="st2" points="146,31.8 138.3,15 130.5,31.8 124.1,31.8 137.1,4.9 139.4,4.5 152.5,31.8 "/>
<g>
	<path class="st2" d="M33.5,36.1c1.9,0,3.9,1,4.3,3.3h-2c-0.4-1.1-1.3-1.5-2.4-1.5c-1.7,0-2.8,1.2-2.8,3c0,1.6,1.1,2.9,2.8,2.9
		c1.2,0,2.1-0.5,2.4-1.7h1.9c-0.4,2.5-2.4,3.5-4.4,3.5c-2.5,0-4.8-1.7-4.8-4.8C28.6,37.8,31,36.1,33.5,36.1"/>
	<path class="st2" d="M44.8,45.8c-2.5,0-4.8-1.7-4.8-4.9c0-3.2,2.3-4.9,4.8-4.9c2.4,0,4.8,1.7,4.8,4.9
		C49.6,43.8,47.6,45.8,44.8,45.8 M44.8,43.9c1.5,0,2.8-1,2.8-3s-1.3-3-2.8-3s-2.8,1-2.8,3C42,43,43.3,43.9,44.8,43.9"/>
	<polygon class="st2" points="57.7,42.3 54.4,42.3 54.4,45.6 52.4,45.6 52.4,36.2 58.2,36.2 58.2,38 54.4,38 54.4,40.5 57.8,40.5 
		57.8,42.3 	"/>
	<polygon class="st2" points="66.2,42.3 62.8,42.3 62.8,45.6 60.8,45.6 60.8,36.2 66.6,36.2 66.6,38 62.8,38 62.8,40.5 66.2,40.5 	
		"/>
	<polygon class="st2" points="75,38 71.3,38 71.3,39.9 74.8,39.9 74.8,41.6 71.3,41.6 71.3,43.8 75.1,43.8 75.1,45.6 69.2,45.6 
		69.2,36.2 75,36.2 	"/>
	<polygon class="st2" points="83.9,38 80.2,38 80.2,39.9 83.6,39.9 83.6,41.6 80.1,41.6 80.1,43.8 84,43.8 84,45.6 78.1,45.6 
		78.1,36.2 83.9,36.2 	"/>
	<polygon class="st2" points="91.4,39.9 93.2,39.9 93.2,38.2 94.7,38.2 94.7,39.9 96.5,39.9 96.5,41.5 94.7,41.5 94.7,43.2 
		93.2,43.2 93.2,41.5 91.4,41.5 	"/>
	<polygon class="st2" points="103.4,38 103.4,36.2 110.3,36.2 110.3,38 107.9,38 107.9,45.6 105.9,45.6 105.9,38 	"/>
	<polygon class="st2" points="118.5,38 114.7,38 114.7,39.9 118.2,39.9 118.2,41.6 114.7,41.6 114.7,43.8 118.6,43.8 118.6,45.6 
		112.7,45.6 112.7,36.2 118.5,36.2 	"/>
	<path class="st2" d="M123.4,44.1l-0.7,1.6h-2.1v-0.3l4.3-9.2h0.9l4.3,9.2v0.3H128l-0.7-1.6H123.4z M124.1,42.4h2.6l-1.3-3.1
		L124.1,42.4z"/>
</g>
<g>
	<polygon class="st2" points="24.9,4.5 22.6,4.9 9.6,31.8 16,31.8 23.8,15 31.6,31.8 38,31.8 	"/>
	<polygon class="st2" points="32,27.1 15.6,27.1 16.6,21.5 31,21.5 	"/>
</g>
<polygon class="st2" points="144.8,26.7 128.5,26.7 129.5,21.1 143.8,21.1 "/>
<path class="st2" d="M51.2,5H40.6l0,0l0,0v26.8h5.6v-7.4c0,0,3.6,0,5.1,0c5.3,0,9.7-4.4,9.7-9.7S56.6,5,51.2,5z M51.2,18.8
	c-2.2,0-5.1,0-5.1,0s0-7.8,0-8.1l0,0c0,0,4,0,5.1,0c2.2,0,4.1,1.8,4.1,4.1C55.3,17,53.4,18.8,51.2,18.8z"/>
</svg>
