<?xml version="1.0" encoding="utf-8"?>
<!-- Generator: Adobe Illustrator 19.2.1, SVG Export Plug-In . SVG Version: 6.00 Build 0)  -->
<svg version="1.1" id="Layer_1" xmlns="http://www.w3.org/2000/svg" xmlns:xlink="http://www.w3.org/1999/xlink" x="0px" y="0px"
	 viewBox="0 0 158.8 35.2" style="enable-background:new 0 0 158.8 35.2;" xml:space="preserve">
<style type="text/css">
	.st0{fill:#D3D1C1;}
</style>
<g>
	<polygon class="st0" points="95.6,30.9 95.6,4.1 101.3,4.1 101.4,4.3 101.4,30.9 	"/>
	<polygon class="st0" points="116.7,30.9 116.7,4.4 116.8,4.1 122.6,4.1 122.6,30.9 	"/>
	<polygon class="st0" points="101.3,4.1 109,15.3 116.8,4.1 122.6,4.1 122.6,5.5 110.3,23.4 108,23.8 95.6,5.6 95.6,4.1 	"/>
</g>
<polygon class="st0" points="49.1,19.1 54.5,30.9 60.9,30.9 55.2,18.9 "/>
<path class="st0" d="M78.2,31.5c-7.7,0-14-6.3-14-13.9c0-7.7,6.3-13.9,14-13.9s14,6.2,14,13.9C92.2,25.2,85.9,31.5,78.2,31.5
	 M78.2,9.3c-4.5,0-8.1,3.7-8.1,8.3c0,4.5,3.6,8.3,8.1,8.3c4.6,0,8.2-3.7,8.2-8.3C86.4,13,82.8,9.3,78.2,9.3"/>
<polygon class="st0" points="146,30.9 138.3,14.1 130.5,30.9 124.1,30.9 137.1,4 139.4,3.6 152.5,30.9 "/>
<g>
	<polygon class="st0" points="24.9,3.6 22.6,4 9.6,30.9 16,30.9 23.8,14.1 31.6,30.9 38,30.9 	"/>
	<polygon class="st0" points="32,26.2 15.6,26.2 16.6,20.6 31,20.6 	"/>
</g>
<polygon class="st0" points="144.8,25.8 128.5,25.8 129.5,20.2 143.8,20.2 "/>
<path class="st0" d="M51.2,4.1H40.6l0,0l0,0v26.8h5.6v-7.3c0,0,3.6,0,5.1,0c5.3,0,9.7-4.4,9.7-9.7S56.6,4.1,51.2,4.1z M51.2,17.9
	c-2.2,0-5.1,0-5.1,0s0-7.8,0-8.1l0,0c0,0,4,0,5.1,0c2.2,0,4.1,1.8,4.1,4.1C55.3,16.1,53.4,17.9,51.2,17.9z"/>
</svg>
