<?xml version="1.0" encoding="utf-8"?>
<!-- Generator: Adobe Illustrator 19.2.1, SVG Export Plug-In . SVG Version: 6.00 Build 0)  -->
<svg version="1.1" id="Layer_1" xmlns="http://www.w3.org/2000/svg" xmlns:xlink="http://www.w3.org/1999/xlink" x="0px" y="0px"
	 viewBox="0 0 158.8 49.7" style="enable-background:new 0 0 158.8 49.7;" xml:space="preserve">
<style type="text/css">
	.st0{fill:#D3D1C1;}
	.st1{fill:#FFFFFF;}
	.st2{fill:#231F20;}
</style>
<g>
	<polygon class="st1" points="95.6,30.3 95.6,3.5 101.3,3.5 101.4,3.7 101.4,30.3 	"/>
	<polygon class="st1" points="116.7,30.3 116.7,3.8 116.8,3.5 122.6,3.5 122.6,30.3 	"/>
	<polygon class="st1" points="101.3,3.5 109,14.7 116.8,3.5 122.6,3.5 122.6,4.9 110.3,22.8 108,23.2 95.6,5 95.6,3.5 	"/>
</g>
<polygon class="st1" points="49.1,18.5 54.5,30.3 60.9,30.3 55.2,18.3 "/>
<path class="st1" d="M78.2,30.9c-7.7,0-14-6.3-14-13.9c0-7.7,6.3-13.9,14-13.9s14,6.2,14,13.9C92.2,24.6,85.9,30.9,78.2,30.9
	 M78.2,8.7c-4.5,0-8.1,3.7-8.1,8.3c0,4.5,3.6,8.3,8.1,8.3c4.6,0,8.2-3.7,8.2-8.3C86.4,12.4,82.8,8.7,78.2,8.7"/>
<polygon class="st1" points="146,30.3 138.3,13.5 130.5,30.3 124.1,30.3 137.1,3.4 139.4,3 152.5,30.3 "/>
<g>
	<path class="st1" d="M33.5,34.7c1.9,0,3.9,1,4.3,3.3h-2c-0.4-1.1-1.3-1.5-2.4-1.5c-1.7,0-2.8,1.2-2.8,3c0,1.6,1.1,2.9,2.8,2.9
		c1.2,0,2.1-0.5,2.4-1.7h1.9c-0.4,2.5-2.4,3.5-4.4,3.5c-2.5,0-4.8-1.7-4.8-4.8C28.6,36.3,31,34.6,33.5,34.7"/>
	<path class="st1" d="M44.8,44.3c-2.5,0-4.8-1.7-4.8-4.9s2.3-4.9,4.8-4.9c2.4,0,4.8,1.7,4.8,4.9C49.6,42.3,47.6,44.3,44.8,44.3
		 M44.8,42.5c1.5,0,2.8-1,2.8-3s-1.3-3-2.8-3s-2.8,1-2.8,3S43.3,42.5,44.8,42.5"/>
	<polygon class="st1" points="57.7,40.8 54.4,40.8 54.4,44.1 52.4,44.1 52.4,34.7 58.2,34.7 58.2,36.5 54.4,36.5 54.4,39 57.8,39 
		57.8,40.8 	"/>
	<polygon class="st1" points="66.2,40.8 62.8,40.8 62.8,44.1 60.8,44.1 60.8,34.7 66.6,34.7 66.6,36.5 62.8,36.5 62.8,39 66.2,39 	
		"/>
	<polygon class="st1" points="75,36.5 71.3,36.5 71.3,38.4 74.8,38.4 74.8,40.2 71.3,40.2 71.3,42.3 75.1,42.3 75.1,44.1 69.2,44.1 
		69.2,34.7 75,34.7 	"/>
	<polygon class="st1" points="83.9,36.5 80.2,36.5 80.2,38.4 83.6,38.4 83.6,40.2 80.1,40.2 80.1,42.3 84,42.3 84,44.1 78.1,44.1 
		78.1,34.7 83.9,34.7 	"/>
	<polygon class="st1" points="91.4,38.4 93.2,38.4 93.2,36.7 94.7,36.7 94.7,38.4 96.5,38.4 96.5,40 94.7,40 94.7,41.7 93.2,41.7 
		93.2,40 91.4,40 	"/>
	<polygon class="st1" points="103.4,36.5 103.4,34.7 110.3,34.7 110.3,36.5 107.9,36.5 107.9,44.1 105.9,44.1 105.9,36.5 	"/>
	<polygon class="st1" points="118.5,36.5 114.7,36.5 114.7,38.4 118.2,38.4 118.2,40.2 114.7,40.2 114.7,42.3 118.6,42.3 
		118.6,44.1 112.7,44.1 112.7,34.7 118.5,34.7 	"/>
	<path class="st1" d="M123.4,42.6l-0.7,1.6h-2.1v-0.3l4.3-9.2h0.9l4.3,9.2v0.3H128l-0.7-1.6H123.4z M124.1,40.9h2.6l-1.3-3.1
		L124.1,40.9z"/>
</g>
<g>
	<polygon class="st1" points="24.9,3 22.6,3.4 9.6,30.3 16,30.3 23.8,13.5 31.6,30.3 38,30.3 	"/>
	<polygon class="st1" points="32,25.6 15.6,25.6 16.6,20 31,20 	"/>
</g>
<polygon class="st1" points="144.8,25.2 128.5,25.2 129.5,19.6 143.8,19.6 "/>
<path class="st1" d="M51.2,3.5H40.6l0,0l0,0v26.8h5.6V23c0,0,3.6,0,5.1,0c5.3,0,9.7-4.4,9.7-9.7S56.6,3.5,51.2,3.5z M51.2,17.3
	c-2.2,0-5.1,0-5.1,0s0-7.8,0-8.1l0,0c0,0,4,0,5.1,0c2.2,0,4.1,1.8,4.1,4.1S53.4,17.3,51.2,17.3z"/>
</svg>
